<mxfile host="app.diagrams.net" modified="2023-10-16T02:04:29.440Z" agent="Mozilla/5.0 (Windows NT 10.0; Win64; x64; rv:109.0) Gecko/20100101 Firefox/118.0" etag="eYY_gmavROxJA1Ee0O0s" version="22.0.4" type="github">
  <diagram id="C5RBs43oDa-KdzZeNtuy" name="Page-1">
    <mxGraphModel dx="766" dy="416" grid="1" gridSize="10" guides="1" tooltips="1" connect="1" arrows="1" fold="1" page="1" pageScale="1" pageWidth="827" pageHeight="1169" math="0" shadow="0">
      <root>
        <mxCell id="WIyWlLk6GJQsqaUBKTNV-0" />
        <mxCell id="WIyWlLk6GJQsqaUBKTNV-1" parent="WIyWlLk6GJQsqaUBKTNV-0" />
        <mxCell id="nXqk7U7wd5If8xiabDHK-7" style="edgeStyle=orthogonalEdgeStyle;rounded=0;orthogonalLoop=1;jettySize=auto;html=1;exitX=0.5;exitY=1;exitDx=0;exitDy=0;exitPerimeter=0;entryX=0.5;entryY=0;entryDx=0;entryDy=0;" edge="1" parent="WIyWlLk6GJQsqaUBKTNV-1" source="nXqk7U7wd5If8xiabDHK-0" target="nXqk7U7wd5If8xiabDHK-1">
          <mxGeometry relative="1" as="geometry" />
        </mxCell>
        <mxCell id="nXqk7U7wd5If8xiabDHK-0" value="Mulai" style="strokeWidth=2;html=1;shape=mxgraph.flowchart.terminator;whiteSpace=wrap;" vertex="1" parent="WIyWlLk6GJQsqaUBKTNV-1">
          <mxGeometry x="340" y="130" width="90" height="40" as="geometry" />
        </mxCell>
        <mxCell id="nXqk7U7wd5If8xiabDHK-1" value="Input Jari Jari(r)" style="shape=parallelogram;html=1;strokeWidth=2;perimeter=parallelogramPerimeter;whiteSpace=wrap;rounded=1;arcSize=12;size=0.23;" vertex="1" parent="WIyWlLk6GJQsqaUBKTNV-1">
          <mxGeometry x="325" y="240" width="120" height="40" as="geometry" />
        </mxCell>
        <mxCell id="nXqk7U7wd5If8xiabDHK-10" style="edgeStyle=orthogonalEdgeStyle;rounded=0;orthogonalLoop=1;jettySize=auto;html=1;exitX=1;exitY=0.5;exitDx=0;exitDy=0;exitPerimeter=0;entryX=0.57;entryY=-0.025;entryDx=0;entryDy=0;entryPerimeter=0;" edge="1" parent="WIyWlLk6GJQsqaUBKTNV-1" source="nXqk7U7wd5If8xiabDHK-2" target="nXqk7U7wd5If8xiabDHK-4">
          <mxGeometry relative="1" as="geometry">
            <mxPoint x="540" y="375" as="targetPoint" />
          </mxGeometry>
        </mxCell>
        <mxCell id="nXqk7U7wd5If8xiabDHK-2" value="Jari Jari=kelipatan??" style="strokeWidth=2;html=1;shape=mxgraph.flowchart.decision;whiteSpace=wrap;" vertex="1" parent="WIyWlLk6GJQsqaUBKTNV-1">
          <mxGeometry x="310" y="330" width="150" height="90" as="geometry" />
        </mxCell>
        <mxCell id="nXqk7U7wd5If8xiabDHK-14" style="edgeStyle=orthogonalEdgeStyle;rounded=0;orthogonalLoop=1;jettySize=auto;html=1;exitX=0.5;exitY=1;exitDx=0;exitDy=0;" edge="1" parent="WIyWlLk6GJQsqaUBKTNV-1">
          <mxGeometry relative="1" as="geometry">
            <mxPoint x="225" y="530" as="targetPoint" />
            <mxPoint x="225" y="530" as="sourcePoint" />
          </mxGeometry>
        </mxCell>
        <mxCell id="nXqk7U7wd5If8xiabDHK-3" value="Phi=22/7" style="rounded=1;whiteSpace=wrap;html=1;absoluteArcSize=1;arcSize=14;strokeWidth=2;" vertex="1" parent="WIyWlLk6GJQsqaUBKTNV-1">
          <mxGeometry x="190" y="490" width="100" height="40" as="geometry" />
        </mxCell>
        <mxCell id="nXqk7U7wd5If8xiabDHK-4" value="Phi=3.14" style="rounded=1;whiteSpace=wrap;html=1;absoluteArcSize=1;arcSize=14;strokeWidth=2;" vertex="1" parent="WIyWlLk6GJQsqaUBKTNV-1">
          <mxGeometry x="480" y="490" width="100" height="40" as="geometry" />
        </mxCell>
        <mxCell id="nXqk7U7wd5If8xiabDHK-5" value="&lt;div&gt;Hitung luas&lt;/div&gt;&lt;div&gt;&lt;i&gt;l=Phi x r x r&lt;/i&gt;&lt;br&gt;&lt;/div&gt;" style="strokeWidth=2;html=1;shape=mxgraph.flowchart.terminator;whiteSpace=wrap;" vertex="1" parent="WIyWlLk6GJQsqaUBKTNV-1">
          <mxGeometry x="330" y="600" width="100" height="40" as="geometry" />
        </mxCell>
        <mxCell id="nXqk7U7wd5If8xiabDHK-6" value="Tampikan luas" style="strokeWidth=2;html=1;shape=mxgraph.flowchart.terminator;whiteSpace=wrap;" vertex="1" parent="WIyWlLk6GJQsqaUBKTNV-1">
          <mxGeometry x="342.5" y="730" width="75" height="30" as="geometry" />
        </mxCell>
        <mxCell id="nXqk7U7wd5If8xiabDHK-9" style="edgeStyle=orthogonalEdgeStyle;rounded=0;orthogonalLoop=1;jettySize=auto;html=1;exitX=0.5;exitY=1;exitDx=0;exitDy=0;entryX=0.5;entryY=0;entryDx=0;entryDy=0;entryPerimeter=0;" edge="1" parent="WIyWlLk6GJQsqaUBKTNV-1" source="nXqk7U7wd5If8xiabDHK-1" target="nXqk7U7wd5If8xiabDHK-2">
          <mxGeometry relative="1" as="geometry" />
        </mxCell>
        <mxCell id="nXqk7U7wd5If8xiabDHK-12" style="edgeStyle=orthogonalEdgeStyle;rounded=0;orthogonalLoop=1;jettySize=auto;html=1;exitX=0;exitY=0.5;exitDx=0;exitDy=0;exitPerimeter=0;entryX=0.38;entryY=-0.05;entryDx=0;entryDy=0;entryPerimeter=0;" edge="1" parent="WIyWlLk6GJQsqaUBKTNV-1" source="nXqk7U7wd5If8xiabDHK-2" target="nXqk7U7wd5If8xiabDHK-3">
          <mxGeometry relative="1" as="geometry" />
        </mxCell>
        <mxCell id="nXqk7U7wd5If8xiabDHK-13" style="edgeStyle=orthogonalEdgeStyle;rounded=0;orthogonalLoop=1;jettySize=auto;html=1;exitX=0.5;exitY=1;exitDx=0;exitDy=0;entryX=1;entryY=0.5;entryDx=0;entryDy=0;entryPerimeter=0;" edge="1" parent="WIyWlLk6GJQsqaUBKTNV-1" source="nXqk7U7wd5If8xiabDHK-4" target="nXqk7U7wd5If8xiabDHK-5">
          <mxGeometry relative="1" as="geometry" />
        </mxCell>
        <mxCell id="nXqk7U7wd5If8xiabDHK-15" style="edgeStyle=orthogonalEdgeStyle;rounded=0;orthogonalLoop=1;jettySize=auto;html=1;exitX=0.5;exitY=1;exitDx=0;exitDy=0;entryX=0;entryY=0.5;entryDx=0;entryDy=0;entryPerimeter=0;" edge="1" parent="WIyWlLk6GJQsqaUBKTNV-1" source="nXqk7U7wd5If8xiabDHK-3" target="nXqk7U7wd5If8xiabDHK-5">
          <mxGeometry relative="1" as="geometry" />
        </mxCell>
        <mxCell id="nXqk7U7wd5If8xiabDHK-16" style="edgeStyle=orthogonalEdgeStyle;rounded=0;orthogonalLoop=1;jettySize=auto;html=1;exitX=0.5;exitY=1;exitDx=0;exitDy=0;exitPerimeter=0;entryX=0.5;entryY=0;entryDx=0;entryDy=0;entryPerimeter=0;" edge="1" parent="WIyWlLk6GJQsqaUBKTNV-1" source="nXqk7U7wd5If8xiabDHK-5" target="nXqk7U7wd5If8xiabDHK-6">
          <mxGeometry relative="1" as="geometry" />
        </mxCell>
        <mxCell id="nXqk7U7wd5If8xiabDHK-17" value="" style="strokeWidth=2;html=1;shape=mxgraph.flowchart.terminator;whiteSpace=wrap;" vertex="1" parent="WIyWlLk6GJQsqaUBKTNV-1">
          <mxGeometry x="340" y="810" width="80" height="30" as="geometry" />
        </mxCell>
        <mxCell id="nXqk7U7wd5If8xiabDHK-18" style="edgeStyle=orthogonalEdgeStyle;rounded=0;orthogonalLoop=1;jettySize=auto;html=1;exitX=0.5;exitY=1;exitDx=0;exitDy=0;exitPerimeter=0;entryX=0.5;entryY=0;entryDx=0;entryDy=0;entryPerimeter=0;" edge="1" parent="WIyWlLk6GJQsqaUBKTNV-1" source="nXqk7U7wd5If8xiabDHK-6" target="nXqk7U7wd5If8xiabDHK-17">
          <mxGeometry relative="1" as="geometry" />
        </mxCell>
      </root>
    </mxGraphModel>
  </diagram>
</mxfile>
